# xmcd
#
# Track frame offsets: 
#        150
#        19635
#        47281
#        70747
#        90184
#        105096
#
# Disc length: 1749 seconds
#
# Revision: 0
# Processed by: cddbd v1.5.2PL0 Copyright (c) Steve Scherf et al.
# Submitted via: ExactAudioCopyFreeDBPlugin 1.0
#
DISCID=2f06d306
DTITLE=Desert Blues Cartel - The Blues will not save you
DYEAR=2017
DGENRE=Blues
TTITLE0=Long Gone
TTITLE1=Snow
TTITLE2=Aint Got The Blues
TTITLE3=Smokestack Lightnin'
TTITLE4=Lover Have Mercy
TTITLE5=Sunrise Blues
EXTD=
EXTT0=
EXTT1=
EXTT2=
EXTT3=
EXTT4=
EXTT5=
PLAYORDER=
